<mxfile host="app.diagrams.net" agent="Mozilla/5.0 (Windows NT 10.0; Win64; x64) AppleWebKit/537.36 (KHTML, like Gecko) Chrome/134.0.0.0 Safari/537.36" version="26.1.0" pages="2">
  <diagram name="Página-1" id="6mzv2gbMpPFmHXyfOi4P">
    <mxGraphModel dx="724" dy="348" grid="1" gridSize="10" guides="1" tooltips="1" connect="1" arrows="1" fold="1" page="1" pageScale="1" pageWidth="827" pageHeight="1169" math="0" shadow="0">
      <root>
        <mxCell id="0" />
        <mxCell id="1" parent="0" />
        <mxCell id="-lNDsF_yHpgbE76ikR1U-13" style="edgeStyle=orthogonalEdgeStyle;rounded=0;orthogonalLoop=1;jettySize=auto;html=1;exitX=1;exitY=0.3333333333333333;exitDx=0;exitDy=0;exitPerimeter=0;" edge="1" parent="1" source="-lNDsF_yHpgbE76ikR1U-3" target="-lNDsF_yHpgbE76ikR1U-5">
          <mxGeometry relative="1" as="geometry" />
        </mxCell>
        <mxCell id="-lNDsF_yHpgbE76ikR1U-14" style="edgeStyle=orthogonalEdgeStyle;rounded=0;orthogonalLoop=1;jettySize=auto;html=1;exitX=1;exitY=1;exitDx=0;exitDy=0;exitPerimeter=0;" edge="1" parent="1" source="-lNDsF_yHpgbE76ikR1U-3" target="-lNDsF_yHpgbE76ikR1U-9">
          <mxGeometry relative="1" as="geometry" />
        </mxCell>
        <mxCell id="-lNDsF_yHpgbE76ikR1U-3" value="Cliente" style="shape=umlActor;verticalLabelPosition=bottom;verticalAlign=top;html=1;outlineConnect=0;" vertex="1" parent="1">
          <mxGeometry x="40" y="120" width="80" height="120" as="geometry" />
        </mxCell>
        <mxCell id="-lNDsF_yHpgbE76ikR1U-5" value="&lt;div&gt;&lt;br&gt;&lt;/div&gt;&lt;div&gt;&lt;br&gt;&lt;/div&gt;&lt;div&gt;Fazer Reserva&lt;/div&gt;" style="ellipse;whiteSpace=wrap;html=1;verticalAlign=top;" vertex="1" parent="1">
          <mxGeometry x="220" y="20" width="140" height="110" as="geometry" />
        </mxCell>
        <mxCell id="-lNDsF_yHpgbE76ikR1U-9" value="&lt;div&gt;&lt;br&gt;&lt;/div&gt;&lt;div&gt;&lt;br&gt;&lt;/div&gt;&lt;div&gt;Cancelar Reserva&lt;/div&gt;" style="ellipse;whiteSpace=wrap;html=1;verticalAlign=top;" vertex="1" parent="1">
          <mxGeometry x="240" y="230" width="130" height="90" as="geometry" />
        </mxCell>
        <mxCell id="-lNDsF_yHpgbE76ikR1U-15" value="Actor" style="shape=umlActor;verticalLabelPosition=bottom;verticalAlign=top;html=1;outlineConnect=0;" vertex="1" parent="1">
          <mxGeometry x="380" y="880" width="30" height="60" as="geometry" />
        </mxCell>
      </root>
    </mxGraphModel>
  </diagram>
  <diagram id="sgLXqQ2J2EPDVqUgFB-f" name="Página-2">
    <mxGraphModel dx="708" dy="351" grid="1" gridSize="10" guides="1" tooltips="1" connect="1" arrows="1" fold="1" page="1" pageScale="1" pageWidth="827" pageHeight="1169" math="0" shadow="0">
      <root>
        <mxCell id="0" />
        <mxCell id="1" parent="0" />
        <mxCell id="PaRzs3g7HJyfMiKBvxtZ-1" value="Actor" style="shape=umlActor;verticalLabelPosition=bottom;verticalAlign=top;html=1;outlineConnect=0;" parent="1" vertex="1">
          <mxGeometry x="70" y="160" width="30" height="60" as="geometry" />
        </mxCell>
        <mxCell id="PaRzs3g7HJyfMiKBvxtZ-2" value="&lt;br&gt;&lt;div&gt;&lt;br&gt;&lt;/div&gt;&lt;div&gt;&lt;br&gt;&lt;/div&gt;&lt;div&gt;&lt;br&gt;&lt;/div&gt;&lt;div&gt;&lt;br&gt;&lt;/div&gt;&lt;div&gt;&lt;br&gt;&lt;/div&gt;&lt;div&gt;&lt;br&gt;&lt;/div&gt;" style="shape=umlActor;verticalLabelPosition=bottom;verticalAlign=top;html=1;outlineConnect=0;" parent="1" vertex="1">
          <mxGeometry x="70" y="480" width="30" height="60" as="geometry" />
        </mxCell>
        <mxCell id="PaRzs3g7HJyfMiKBvxtZ-3" value="Checar Saldo" style="ellipse;whiteSpace=wrap;html=1;fillColor=light-dark(#99CCFF,var(--ge-dark-color, #121212));" parent="1" vertex="1">
          <mxGeometry x="230" y="30" width="120" height="80" as="geometry" />
        </mxCell>
        <mxCell id="PaRzs3g7HJyfMiKBvxtZ-4" value="Depositar" style="ellipse;whiteSpace=wrap;html=1;fillColor=light-dark(#99CCFF,var(--ge-dark-color, #121212));" parent="1" vertex="1">
          <mxGeometry x="230" y="120" width="110" height="60" as="geometry" />
        </mxCell>
        <mxCell id="PaRzs3g7HJyfMiKBvxtZ-16" value="Transferir" style="ellipse;whiteSpace=wrap;html=1;fillColor=light-dark(#99CCFF,var(--ge-dark-color, #121212));" parent="1" vertex="1">
          <mxGeometry x="220" y="290" width="120" height="80" as="geometry" />
        </mxCell>
        <mxCell id="PaRzs3g7HJyfMiKBvxtZ-19" value="Manutenção" style="ellipse;whiteSpace=wrap;html=1;fillColor=light-dark(#99CCFF,var(--ge-dark-color, #121212));" parent="1" vertex="1">
          <mxGeometry x="225" y="440" width="120" height="80" as="geometry" />
        </mxCell>
        <mxCell id="PaRzs3g7HJyfMiKBvxtZ-20" value="Sacar" style="ellipse;whiteSpace=wrap;html=1;fillColor=light-dark(#99CCFF,var(--ge-dark-color, #121212));" parent="1" vertex="1">
          <mxGeometry x="220" y="200" width="120" height="80" as="geometry" />
        </mxCell>
        <mxCell id="T4NiaZSsoMwYmQ6cb8wq-2" value="Reparo" style="ellipse;whiteSpace=wrap;html=1;fillColor=light-dark(#99CCFF,var(--ge-dark-color, #121212));" parent="1" vertex="1">
          <mxGeometry x="225" y="530" width="120" height="80" as="geometry" />
        </mxCell>
        <mxCell id="T4NiaZSsoMwYmQ6cb8wq-3" value="Actor" style="shape=umlActor;verticalLabelPosition=bottom;verticalAlign=top;html=1;outlineConnect=0;" parent="1" vertex="1">
          <mxGeometry x="540" y="280" width="30" height="60" as="geometry" />
        </mxCell>
        <mxCell id="T4NiaZSsoMwYmQ6cb8wq-4" value="" style="endArrow=none;html=1;rounded=0;" parent="1" edge="1">
          <mxGeometry width="50" height="50" relative="1" as="geometry">
            <mxPoint x="110" y="170" as="sourcePoint" />
            <mxPoint x="220" y="80" as="targetPoint" />
          </mxGeometry>
        </mxCell>
        <mxCell id="T4NiaZSsoMwYmQ6cb8wq-5" value="" style="endArrow=none;html=1;rounded=0;" parent="1" edge="1">
          <mxGeometry width="50" height="50" relative="1" as="geometry">
            <mxPoint x="120" y="190" as="sourcePoint" />
            <mxPoint x="220" y="150" as="targetPoint" />
          </mxGeometry>
        </mxCell>
        <mxCell id="Gy6co1KwtQ5n9I18DSzA-1" value="" style="endArrow=none;html=1;rounded=0;entryX=-0.048;entryY=0.41;entryDx=0;entryDy=0;entryPerimeter=0;" edge="1" parent="1" target="PaRzs3g7HJyfMiKBvxtZ-20">
          <mxGeometry width="50" height="50" relative="1" as="geometry">
            <mxPoint x="120" y="200" as="sourcePoint" />
            <mxPoint x="210" y="180" as="targetPoint" />
          </mxGeometry>
        </mxCell>
        <mxCell id="Gy6co1KwtQ5n9I18DSzA-2" value="" style="endArrow=none;html=1;rounded=0;entryX=0;entryY=0.5;entryDx=0;entryDy=0;" edge="1" parent="1" target="PaRzs3g7HJyfMiKBvxtZ-16">
          <mxGeometry width="50" height="50" relative="1" as="geometry">
            <mxPoint x="110" y="220" as="sourcePoint" />
            <mxPoint x="204" y="253" as="targetPoint" />
          </mxGeometry>
        </mxCell>
        <mxCell id="Gy6co1KwtQ5n9I18DSzA-3" value="" style="endArrow=classic;html=1;rounded=0;entryX=0;entryY=0.5;entryDx=0;entryDy=0;" edge="1" parent="1" target="PaRzs3g7HJyfMiKBvxtZ-19">
          <mxGeometry width="50" height="50" relative="1" as="geometry">
            <mxPoint x="110" y="505" as="sourcePoint" />
            <mxPoint x="160" y="455" as="targetPoint" />
          </mxGeometry>
        </mxCell>
        <mxCell id="Gy6co1KwtQ5n9I18DSzA-4" value="" style="endArrow=classic;html=1;rounded=0;entryX=0;entryY=0.5;entryDx=0;entryDy=0;" edge="1" parent="1" target="T4NiaZSsoMwYmQ6cb8wq-2">
          <mxGeometry width="50" height="50" relative="1" as="geometry">
            <mxPoint x="110" y="520" as="sourcePoint" />
            <mxPoint x="225" y="515" as="targetPoint" />
          </mxGeometry>
        </mxCell>
        <mxCell id="Gy6co1KwtQ5n9I18DSzA-5" value="" style="endArrow=classic;html=1;rounded=0;entryX=0.945;entryY=0.274;entryDx=0;entryDy=0;entryPerimeter=0;" edge="1" parent="1" target="PaRzs3g7HJyfMiKBvxtZ-19">
          <mxGeometry width="50" height="50" relative="1" as="geometry">
            <mxPoint x="520" y="340" as="sourcePoint" />
            <mxPoint x="370" y="480" as="targetPoint" />
          </mxGeometry>
        </mxCell>
        <mxCell id="Gy6co1KwtQ5n9I18DSzA-6" value="" style="endArrow=classic;html=1;rounded=0;entryX=0.945;entryY=0.274;entryDx=0;entryDy=0;entryPerimeter=0;" edge="1" parent="1">
          <mxGeometry width="50" height="50" relative="1" as="geometry">
            <mxPoint x="520" y="350" as="sourcePoint" />
            <mxPoint x="340" y="551" as="targetPoint" />
          </mxGeometry>
        </mxCell>
        <mxCell id="Gy6co1KwtQ5n9I18DSzA-10" value="" style="endArrow=classic;html=1;rounded=0;entryX=0.949;entryY=0.848;entryDx=0;entryDy=0;entryPerimeter=0;" edge="1" parent="1" target="PaRzs3g7HJyfMiKBvxtZ-3">
          <mxGeometry width="50" height="50" relative="1" as="geometry">
            <mxPoint x="530" y="280" as="sourcePoint" />
            <mxPoint x="430" y="160" as="targetPoint" />
          </mxGeometry>
        </mxCell>
        <mxCell id="Gy6co1KwtQ5n9I18DSzA-11" value="" style="endArrow=classic;html=1;rounded=0;entryX=0.949;entryY=0.848;entryDx=0;entryDy=0;entryPerimeter=0;" edge="1" parent="1">
          <mxGeometry width="50" height="50" relative="1" as="geometry">
            <mxPoint x="520" y="290" as="sourcePoint" />
            <mxPoint x="340" y="149" as="targetPoint" />
          </mxGeometry>
        </mxCell>
        <mxCell id="Gy6co1KwtQ5n9I18DSzA-12" value="" style="endArrow=classic;html=1;rounded=0;entryX=0.949;entryY=0.848;entryDx=0;entryDy=0;entryPerimeter=0;" edge="1" parent="1">
          <mxGeometry width="50" height="50" relative="1" as="geometry">
            <mxPoint x="520" y="300" as="sourcePoint" />
            <mxPoint x="340" y="241.5" as="targetPoint" />
          </mxGeometry>
        </mxCell>
        <mxCell id="Gy6co1KwtQ5n9I18DSzA-13" value="" style="endArrow=classic;html=1;rounded=0;entryX=0.949;entryY=0.848;entryDx=0;entryDy=0;entryPerimeter=0;" edge="1" parent="1">
          <mxGeometry width="50" height="50" relative="1" as="geometry">
            <mxPoint x="520" y="320" as="sourcePoint" />
            <mxPoint x="340" y="320" as="targetPoint" />
          </mxGeometry>
        </mxCell>
      </root>
    </mxGraphModel>
  </diagram>
</mxfile>
